<svg width="18" height="18" viewBox="0 0 18 18" fill="none" xmlns="http://www.w3.org/2000/svg">
<path d="M8.8313 1.47388C9.74414 1.51871 10.5224 1.89764 11.0969 2.52856C11.6823 3.17165 12.047 4.06958 12.1418 5.12817H13.7688V15.7688H3.46997V5.12817H5.09595C5.18622 4.06881 5.55431 3.16975 6.14966 2.52661C6.77259 1.85385 7.63335 1.47009 8.64673 1.46997L8.8313 1.47388ZM4.48071 14.7219H12.7356V6.17505H4.48071V14.7219ZM8.61353 2.49438C7.91452 2.49446 7.35413 2.75068 6.95239 3.21802C6.57176 3.66102 6.32743 4.3056 6.25415 5.12817H10.9739C10.9003 4.30599 10.6537 3.66117 10.2717 3.21802C9.86837 2.75026 9.30692 2.49438 8.61353 2.49438Z" fill="#181818"/>
</svg>
