<svg width="18" height="18" viewBox="0 0 18 18" fill="none" xmlns="http://www.w3.org/2000/svg">
<path d="M13.2917 13.9353C13.2917 12.8912 12.6444 11.9561 11.6667 11.5896C9.70266 10.8535 7.53809 10.8536 5.57397 11.5896C4.59623 11.9561 3.948 12.8912 3.948 13.9353V14.2234C3.94812 14.4232 4.11045 14.5847 4.3103 14.5847H12.9304C13.1301 14.5845 13.2916 14.4231 13.2917 14.2234V13.9353ZM14.2917 14.2234C14.2916 14.9754 13.6823 15.5845 12.9304 15.5847H4.3103C3.55818 15.5847 2.94812 14.9755 2.948 14.2234V13.9353C2.948 12.4744 3.85443 11.1669 5.22241 10.6541C7.41295 9.83308 9.82679 9.83308 12.0173 10.6541C13.3854 11.1669 14.2917 12.4743 14.2917 13.9353V14.2234Z" fill="#181818"/>
<path d="M8.62015 1.99658C9.66046 1.99664 10.6398 2.4876 11.2627 3.3208L11.3399 3.42432C11.9547 4.24668 12.1845 5.29428 11.9698 6.29834L11.9219 6.52393C11.7099 7.51448 11.0641 8.35784 10.1631 8.8208C9.19481 9.3182 8.04551 9.3182 7.07718 8.8208C6.17604 8.35788 5.53037 7.51461 5.3184 6.52393L5.27054 6.29834C5.05584 5.29439 5.28479 4.24667 5.89945 3.42432L5.97757 3.3208C6.60053 2.48754 7.57978 1.99658 8.62015 1.99658ZM8.62015 2.99658C7.89507 2.99658 7.21251 3.33872 6.77836 3.91943L6.70023 4.02295C6.25836 4.61416 6.0937 5.36758 6.24808 6.08936L6.29593 6.31494C6.44515 7.01216 6.89999 7.60535 7.53422 7.93115C8.21575 8.28123 9.02458 8.28123 9.70609 7.93115C10.3401 7.60534 10.7942 7.012 10.9434 6.31494L10.9922 6.08936C11.1466 5.3675 10.9811 4.6142 10.5391 4.02295L10.4619 3.91943C10.0278 3.33875 9.34517 2.99664 8.62015 2.99658Z" fill="#181818"/>
</svg>
