<svg width="17" height="17" viewBox="0 0 17 17" fill="none" xmlns="http://www.w3.org/2000/svg">
<path d="M12.7751 3.39941C12.7749 3.15107 12.5733 2.9502 12.325 2.9502H4.67456C4.42635 2.95041 4.22555 3.1512 4.22534 3.39941V13.5996C4.22534 13.848 4.42622 14.0496 4.67456 14.0498H12.325C12.5735 14.0498 12.7751 13.8481 12.7751 13.5996V3.39941ZM13.575 13.5996C13.575 14.29 13.0153 14.8496 12.325 14.8496H4.67456C3.98439 14.8494 3.42456 14.2898 3.42456 13.5996V3.39941C3.42477 2.70938 3.98452 2.14963 4.67456 2.14941H12.325C13.0152 2.14941 13.5747 2.70925 13.575 3.39941V13.5996Z" fill="#181818"/>
<path d="M11.0496 4.69971C11.2705 4.69971 11.45 4.87918 11.45 5.1001C11.45 5.32101 11.2705 5.50049 11.0496 5.50049H5.94995C5.72904 5.50049 5.54956 5.32101 5.54956 5.1001C5.54956 4.87918 5.72904 4.69971 5.94995 4.69971H11.0496Z" fill="#181818"/>
<path d="M9.35034 6.39941C9.57108 6.39962 9.74976 6.57902 9.74976 6.7998C9.74976 7.02059 9.57108 7.19998 9.35034 7.2002H5.94995C5.72904 7.2002 5.54956 7.02072 5.54956 6.7998C5.54956 6.57889 5.72904 6.39941 5.94995 6.39941H9.35034Z" fill="#181818"/>
<path d="M11.0496 8.09961C11.2705 8.09961 11.45 8.27909 11.45 8.5C11.45 8.72091 11.2705 8.90039 11.0496 8.90039H5.94995C5.72904 8.90039 5.54956 8.72091 5.54956 8.5C5.54956 8.27909 5.72904 8.09961 5.94995 8.09961H11.0496Z" fill="#181818"/>
<path d="M9.35034 9.7998C9.57108 9.80002 9.74976 9.97941 9.74976 10.2002C9.74976 10.421 9.57108 10.6004 9.35034 10.6006H5.94995C5.72904 10.6006 5.54956 10.4211 5.54956 10.2002C5.54956 9.97928 5.72904 9.7998 5.94995 9.7998H9.35034Z" fill="#181818"/>
<path d="M11.0496 11.4995C11.2705 11.4995 11.45 11.679 11.45 11.8999C11.45 12.1208 11.2705 12.3003 11.0496 12.3003H5.94995C5.72904 12.3003 5.54956 12.1208 5.54956 11.8999C5.54956 11.679 5.72904 11.4995 5.94995 11.4995H11.0496Z" fill="#181818"/>
</svg>
