<svg width="18" height="18" viewBox="0 0 18 18" fill="none" xmlns="http://www.w3.org/2000/svg">
<path d="M11.3519 11.2766C11.5472 11.0813 11.8637 11.0813 12.0589 11.2766L14.7445 13.9621C14.9396 14.1574 14.9397 14.4739 14.7445 14.6692C14.5492 14.8644 14.2327 14.8643 14.0374 14.6692L11.3519 11.9836C11.1566 11.7883 11.1566 11.4718 11.3519 11.2766Z" fill="#181818"/>
<path d="M6.49088 2.44254C8.46647 1.91318 10.5748 2.47786 12.0212 3.92398C13.4675 5.37027 14.0329 7.47858 13.5036 9.45426C12.9741 11.43 11.4305 12.9737 9.45474 13.5031C7.47907 14.0324 5.37076 13.467 3.92447 12.0207C2.47835 10.5743 1.91367 8.46598 2.44303 6.49039C2.9725 4.51499 4.51547 2.97201 6.49088 2.44254ZM11.3141 4.63101C10.1204 3.43752 8.38017 2.97146 6.74967 3.40836C5.11936 3.84536 3.84585 5.11887 3.40885 6.74918C2.97195 8.37968 3.438 10.1199 4.6315 11.3136C5.82516 12.5073 7.56537 12.9741 9.19596 12.5373C10.8266 12.1003 12.1008 10.8261 12.5378 9.19547C12.9746 7.56488 12.5078 5.82468 11.3141 4.63101Z" fill="#181818"/>
</svg>
